<svg xmlns="http://www.w3.org/2000/svg" viewBox="0 0 1254 1254">
<!-- 選單列圖示的字形：由 menubar-source.png 以 potrace 描出。路徑座標為 0.1 單位、y 向上（見 transform） -->
<g transform="translate(0,1254) scale(0.1,-0.1)"><path d="M10460 11145 c-454 -71 -1356 -581 -2060 -1165 -708 -587 -1190 -1215 -1284 -1674 -30 -144 -29 -150 82 -320 177 -272 183 -291 21 -67 -412 569 -854 1046 -1310 1413 -558 449 -1174 790 -1809 1001 -800 267 -1619 337 -2203 191 -289 -72 -489 -200 -547 -349 -62 -159 -14 -369 176 -764 412 -854 1130 -1830 1769 -2401 626 -560 1267 -849 1973 -890 403 -23 945 53 1451 205 46 14 86 24 88 22 2 -2 -38 -19 -89 -37 -581 -206 -1420 -604 -1958 -928 -1000 -603 -1775 -1379 -2297 -2302 -257 -456 -434 -921 -487 -1281 -19 -126 -20 -192 -5 -314 33 -265 138 -453 296 -528 66 -31 72 -32 198 -31 112 0 142 4 219 27 180 56 425 179 856 432 662 388 695 406 910 493 282 113 599 206 1049 307 135 30 347 78 471 106 679 153 1111 282 1468 440 552 244 1040 604 1365 1009 234 291 429 660 530 1005 79 268 97 393 107 725 9 317 13 339 95 505 94 190 209 314 535 576 400 321 559 482 744 758 258 380 400 807 471 1411 23 190 31 610 16 822 -49 680 -243 1338 -447 1518 -51 44 -125 77 -204 89 -77 13 -81 13 -190 -4z"/></g>
</svg>
